Coordinates
version=1
nRows=17
nColumns=36
inDegrees=yes

Units are S.I. units (second, meters, Newtons, ...)
If the header above contains a line with 'inDegrees', this indicates whether rotational values are in degrees (yes) or radians (no).

endheader
time	pelvis_tilt	pelvis_list	pelvis_rotation	pelvis_tx	pelvis_ty	pelvis_tz	hip_flexion_r	hip_adduction_r	hip_rotation_r	knee_angle_r	knee_angle_r_beta	ankle_angle_r	subtalar_angle_r	mtp_angle_r	hip_flexion_l	hip_adduction_l	hip_rotation_l	knee_angle_l	knee_angle_l_beta	ankle_angle_l	subtalar_angle_l	mtp_angle_l	lumbar_extension	lumbar_bending	lumbar_rotation	arm_flex_r	arm_add_r	arm_rot_r	elbow_flex_r	pro_sup_r	arm_flex_l	arm_add_l	arm_rot_l	elbow_flex_l	pro_sup_l
      1.60000000	     -0.69125574	     -3.99738822	     -4.43240099	     -0.32289986	      1.20869782	     -0.07687238	     -2.50458885	      3.88079032	     -2.30161181	      4.33999079	      0.07574713	     -1.46917162	    -21.19851517	     -7.49999987	     -2.60309355	     -4.66793035	      7.18761693	      0.25955011	      0.00453000	      6.36565628	    -10.85550323	     -7.49999987	     -3.22242399	      3.70150884	     -0.82225257	     -9.12444478	     -6.10719055	     -7.28588746	     34.27145311	     76.51411154	      2.06772883	     -6.79381656	      7.12314415	     22.51036978	     70.76944378
      1.61666670	     -0.47025480	     -4.03762597	     -4.26218597	     -0.32281021	      1.20834513	     -0.07692584	     -3.05124578	      3.88799446	     -2.58208879	      4.09360762	      0.07144693	     -1.58189076	    -20.90886914	     -7.49999987	     -2.92734250	     -4.69700567	      7.24372020	      0.25892831	      0.00451915	      6.39200850	    -10.75327927	     -7.49999987	     -3.59323654	      3.78309224	     -0.90167953	     -9.29439179	     -6.17494544	     -7.13488252	     34.68920191	     75.21012300	      1.71354804	     -6.87514729	      7.20077671	     23.15139435	     69.95793190
      1.63333330	     -0.39159440	     -4.04518629	     -4.22871803	     -0.32274701	      1.20568253	     -0.07691715	     -3.16940648	      3.86517942	     -2.44974103	      4.14754008	      0.07238823	     -1.81926122	    -21.48839175	     -7.49999987	     -3.14591361	     -4.70872794	      7.35445031	      0.26747221	      0.00466827	      6.41808267	    -10.75652452	     -7.49999987	     -3.63682101	      3.78568188	     -0.60177736	     -9.65689648	     -6.32746540	     -6.92011368	     34.96508510	     75.51790482	      1.77473114	     -7.04819624	      8.10476812	     23.41863811	     70.55378045
      1.65000000	     -0.34196882	     -4.04936905	     -4.15034887	     -0.32265937	      1.20833151	     -0.07680646	     -3.21768345	      3.83777374	     -2.62081600	      4.25582588	      0.07427817	     -1.89572447	    -21.53404372	     -7.49999987	     -3.30276840	     -4.72313896	      7.42345795	      0.26915994	      0.00469773	      6.40473647	    -10.82699551	     -7.49999987	     -3.74074851	      3.82004368	     -0.43755214	     -9.82230276	     -6.29682233	     -7.15356351	     34.93680818	     75.47178104	      1.68138052	     -7.08208818	      8.03492207	     23.70290350	     70.65141821
      1.66666670	     -0.26853434	     -4.03165514	     -4.06172665	     -0.32250929	      1.20583568	     -0.07681663	     -3.24778642	      3.79376948	     -2.71299860	      4.41197029	      0.07700341	     -1.73204281	    -21.58578580	     -7.49999987	     -3.47169164	     -4.70274487	      7.57386987	      0.27267833	      0.00475913	      6.50089367	    -10.84934548	     -7.49999987	     -3.92682229	      3.82629585	     -0.39112267	     -9.97000051	     -6.36524457	     -7.01610431	     35.09063721	     74.83920633	      1.58590859	     -7.16799138	      8.27859552	     24.14722427	     70.35542618
      1.68333330	     -0.15534199	     -4.05207734	     -3.94305992	     -0.32262317	      1.20567635	     -0.07681660	     -3.44122100	      3.79366302	     -2.81802173	      4.31506796	      0.07531214	     -1.52337037	    -21.37356686	     -7.49999987	     -3.60916172	     -4.71661802	      7.69599707	      0.26794804	      0.00467658	      6.65653264	    -10.66304976	     -7.49999987	     -4.07728170	      3.84507581	     -0.43783781	    -10.03043443	     -6.33758858	     -7.14955629	     35.01448435	     74.26619625	      1.41917275	     -7.19831951	      8.20042563	     24.41227596	     69.97810926
      1.70000000	     -0.24636210	     -4.01753638	     -3.87162972	     -0.32960916	      1.20836106	     -0.08011237	     -3.21523869	      3.68371996	     -2.81571139	      4.36483117	      0.07618068	     -1.40682250	    -21.46926433	     -7.49999987	     -3.42377509	     -4.61138586	      7.84875322	      0.26802008	      0.00467783	      6.79578715	    -10.69527540	     -7.49999987	     -4.19211777	      3.89324449	     -0.40894469	     -9.90939356	     -6.46124199	     -7.16659137	     35.04519914	     74.31159769	      1.66195088	     -7.20258441	      8.21501824	     24.51588524	     70.02110555
      1.71666670	     -0.21076686	     -4.00106974	     -3.75361985	     -0.32293403	      1.20865504	     -0.07692523	     -3.20217945	      3.65696767	     -2.78659144	      4.40857500	      0.07694415	     -1.40566669	    -21.47549549	     -7.49999987	     -3.41721572	     -4.58513121	      7.90554267	      0.28016940	      0.00488988	      6.78931546	    -10.68592918	     -7.49999987	     -4.25884845	      3.88418533	     -0.42214412	    -10.02313156	     -6.42541307	     -7.16247408	     35.00813413	     74.32392527	      1.59536174	     -7.21672841	      8.22593941	     24.50982596	     70.03446756
      1.73333330	     -0.13964105	     -3.95212301	     -3.56315874	     -0.32280492	      1.20618221	     -0.07708229	     -3.17102181	      3.58174644	     -3.24048682	      4.70053066	      0.08203974	     -0.87428635	    -20.97500407	     -7.49999987	     -3.45437796	     -4.51796580	      8.41032821	      0.26785696	      0.00467499	      6.68914695	    -11.07161715	     -7.49999987	     -4.34724667	      3.78858105	     -0.46843905	    -10.08586451	     -6.45498074	     -6.85786720	     34.60021805	     72.07272899	      1.51497072	     -7.33897055	      8.44071732	     24.97588280	     68.52516339
      1.75000000	     -0.13872358	     -3.95367991	     -3.61417602	     -0.32970316	      1.20568083	     -0.08013066	     -3.09121692	      3.51526766	     -3.21338520	      4.65792382	      0.08129611	     -0.82858160	    -21.00889556	     -7.49999987	     -3.35602308	     -4.47841577	      8.40968744	      0.25982271	      0.00453476	      6.74232450	    -11.07875853	     -7.49999987	     -4.38622327	      3.81683738	     -0.54882626	    -10.10510862	     -6.51874337	     -6.87491285	     34.60655713	     72.08705001	      1.62262851	     -7.34816003	      8.45205877	     25.02400114	     68.54284456
      1.76666670	     -0.13455702	     -3.93994846	     -3.55045953	     -0.32318566	      1.20628540	     -0.07707295	     -3.14853934	      3.52832646	     -3.12542012	      4.68073722	      0.08169428	     -0.88144584	    -20.98113040	     -7.49999987	     -3.34692995	     -4.49583380	      8.42406741	      0.27344503	      0.00477252	      6.73837607	    -11.06947062	     -7.49999987	     -4.35354500	      3.78627767	     -0.70068605	    -10.21806116	     -6.56316686	     -6.89658545	     34.59199011	     72.10111684	      1.73926823	     -7.36077749	      8.46732312	     25.09220238	     68.56368275
      1.78333330	      0.00239260	     -4.01253206	     -3.46845750	     -0.32273103	      1.20639752	     -0.07696122	     -3.69587240	      3.68157510	     -2.91717719	      4.31250211	      0.07526736	     -1.73597397	    -21.80075446	     -7.49999987	     -3.55819579	     -4.59668160	      8.60891079	      0.26829739	      0.00468267	      6.64610416	    -11.34246092	     -7.49999987	     -4.46784570	      3.82996930	     -0.88766579	    -10.50902569	     -6.47463906	     -7.39655698	     35.07059431	     72.96230346	      1.54673950	     -7.72348788	      9.41470432	     26.04744888	     69.75601910
      1.80000000	      0.16359102	     -4.07614357	     -3.44335103	     -0.32267342	      1.20972915	     -0.07699900	     -4.11042650	      3.82455056	     -2.90562397	      4.26359555	      0.07441378	     -2.26052545	    -21.79111481	     -7.49999987	     -3.82131234	     -4.72223243	      8.35132229	      0.27560858	      0.00481028	      6.65163554	    -10.98591422	     -7.49999987	     -4.76551278	      3.83053023	     -0.95689470	    -10.54594147	     -6.43718048	     -7.63569286	     34.96859072	     72.64766290	      1.53358825	     -7.81484439	      9.31689671	     26.13663564	     69.59057795
      1.81666670	      0.07981329	     -4.08861779	     -3.31633126	     -0.32254781	      1.20655925	     -0.07695842	     -4.26314066	      3.91969981	     -3.11748634	      3.95981011	      0.06911172	     -2.51720396	    -21.78163788	     -7.49999987	     -3.75532164	     -4.77758030	      8.63490192	      0.27998299	      0.00488663	      6.28227248	    -11.62144649	     -7.49999987	     -4.68256404	      3.81403719	     -0.96355231	    -10.90381020	     -6.37603297	     -8.06744674	     35.22868014	     73.36189336	      1.50400712	     -8.00756160	      9.62630006	     26.69115447	     70.43708804
      1.83333330	     -0.08940039	     -4.09142515	     -3.37654879	     -0.32230846	      1.20925327	     -0.07704541	     -4.21884163	      3.92936486	     -3.08260537	      3.57161716	      0.06233648	     -2.96735476	    -21.95991725	     -7.49999987	     -3.62320041	     -4.80921336	      8.57669831	      0.27984461	      0.00488421	      5.96354047	    -12.07787990	     -7.49999987	     -4.57001523	      3.87071495	     -0.85731359	    -11.17690551	     -6.40275317	     -8.29718608	     35.52849708	     73.54092733	      1.55023925	     -8.03379436	      9.62423836	     27.12151926	     70.93003082
      1.85000000	     -0.17737541	     -4.07515926	     -3.47710113	     -0.32941047	      1.20605216	     -0.08016330	     -4.06424903	      3.85166515	     -3.17793953	      3.32074936	      0.05795801	     -2.86239494	    -21.68703205	     -7.49999987	     -3.47767415	     -4.76375572	      8.39449903	      0.28189486	      0.00491999	      5.79248101	    -12.33119581	     -7.49999987	     -4.70242802	      3.90726414	     -0.82647288	    -11.17072070	     -6.47983372	     -8.47808971	     35.50103992	     73.26952650	      1.78656337	     -8.05774896	      9.57500556	     27.53332588	     70.89932545
      1.86666670	     -0.18641745	     -4.04689849	     -3.57283066	     -0.32247279	      1.20945850	     -0.07691852	     -4.02359002	      3.81053449	     -3.19169270	      3.19692495	      0.05579687	     -2.94846343	    -21.64336976	     -7.49999987	     -3.52540147	     -4.76044583	      8.26722295	      0.29266355	      0.00510794	      5.69979131	    -12.37561475	     -7.49999987	     -4.71138194	      3.88091393	     -0.94835720	    -11.29969491	     -6.50717266	     -8.50403432	     35.46260639	     73.28193295	      1.80006746	     -8.02826497	      9.58703455	     27.56184533	     70.92053650
